<svg width="47" height="39" viewBox="0 0 47 39" fill="none" xmlns="http://www.w3.org/2000/svg">
<path d="M46.1049 14.1382C46.1049 12.8691 45.9546 11.6334 45.6819 10.4478C43.1103 4.31383 37.0431 0 29.9684 0C28.0425 0 26.1889 0.322841 24.4634 0.912862C25.5154 0.67908 26.6119 0.551057 27.7363 0.551057C33.6421 0.551057 38.7519 3.94089 41.2344 8.87814C42.8932 11.1714 43.8784 13.9824 43.8784 17.0271C43.8784 21.2018 42.036 24.9479 39.1248 27.4916C43.3496 24.5527 46.116 19.6711 46.116 14.1382H46.1049Z" fill="#C0CEE9"/>
<path d="M9.91232 14.9795C9.33344 15.486 8.96606 16.2319 8.96606 17.0613C8.96606 18.5808 10.2018 19.8221 11.7269 19.8221C12.5563 19.8221 13.3022 19.4547 13.8087 18.8759C11.9106 18.3638 10.4244 16.8776 9.91232 14.9795Z" fill="#0075C2"/>
<path d="M15.2463 8.01611C12.196 8.01611 9.71899 10.4931 9.71899 13.5434C9.71899 14.0388 9.79136 14.523 9.91381 14.9795C10.4036 14.5564 11.0326 14.2948 11.7284 14.2948C13.2536 14.2948 14.4893 15.5305 14.4893 17.0612C14.4893 17.757 14.2332 18.3916 13.8102 18.8758C14.2666 19.0039 14.7453 19.0706 15.2463 19.0706C18.2966 19.0706 20.7735 16.5992 20.7735 13.5489C20.7735 10.4987 18.2966 8.02168 15.2463 8.02168V8.01611Z" fill="#CB333B"/>
<path d="M0 34.2279H0.122457C2.18196 34.2279 3.05586 33.3206 3.05586 31.211V20.8745H7.23054V31.8122C7.23054 35.8254 4.49195 38.102 1.39712 38.102H0V34.2279Z" fill="#0075C2"/>
<path d="M13.8651 20.8735H9.69043V34.4162H13.8651V20.8735Z" fill="#0075C2"/>
<path d="M7.90354 17.0613C7.90354 15.5362 6.66783 14.2949 5.14269 14.2949C3.61754 14.2949 2.38184 15.5306 2.38184 17.0613C2.38184 18.5921 3.61754 19.8222 5.14269 19.8222C6.66783 19.8222 7.90354 18.5809 7.90354 17.0613Z" fill="#0075C2"/>
<path d="M35.2837 34.4162H39.5363L34.6324 20.8735H30.3743L25.4648 34.4162H29.7174L30.3297 32.3511H34.6714L35.2837 34.4162ZM31.1758 29.5123L32.5006 25.0092L33.8309 29.5123H31.1702H31.1758Z" fill="#0075C2"/>
<path d="M22.9433 30.7597C21.1398 30.7597 19.6759 29.3682 19.6759 27.6482C19.6759 25.9283 21.1398 24.5367 22.9433 24.5367C23.7838 24.5367 24.5463 24.8428 25.1252 25.3382V21.3083C24.3237 20.9854 23.2216 20.8018 22.3032 20.8018C18.5181 20.8018 15.4456 23.8688 15.4456 27.6538C15.4456 31.4388 18.5125 34.5058 22.3032 34.5058C23.216 34.5058 24.3237 34.3221 25.1252 33.9937V29.9638C24.5463 30.4592 23.7782 30.7653 22.9433 30.7653V30.7597Z" fill="#0075C2"/>
<path d="M18.6077 9.02815C21.1237 5.4602 25.2761 3.12795 29.974 3.12795C34.6719 3.12795 38.7074 5.39897 41.2345 8.87786C38.7464 3.94062 33.6366 0.550781 27.7364 0.550781C26.612 0.550781 25.521 0.678805 24.4634 0.912586C21.2072 2.02583 18.4018 4.09647 16.3701 6.79053L18.6077 9.02815Z" fill="url(#paint0_linear_12984_42)"/>
<path d="M40.2093 30.6304C44.3338 27.5245 47.0001 22.5872 47.0001 17.0266C47.0001 14.6943 46.5325 12.4734 45.6809 10.4473C45.9536 11.6329 46.1039 12.8686 46.1039 14.1377C46.1039 19.6705 43.3375 24.5577 39.1127 27.4911C38.7453 27.8083 38.3613 28.1089 37.9661 28.3872L40.2037 30.6249L40.2093 30.6304Z" fill="url(#paint1_linear_12984_42)"/>
<defs>
<linearGradient id="paint0_linear_12984_42" x1="23.0496" y1="13.47" x2="34.978" y2="1.54157" gradientUnits="userSpaceOnUse">
<stop stop-color="white"/>
<stop offset="0.05" stop-color="#F6F9FC"/>
<stop offset="0.13" stop-color="#DDECF5"/>
<stop offset="0.24" stop-color="#B5D5EA"/>
<stop offset="0.36" stop-color="#7EB5DB"/>
<stop offset="0.5" stop-color="#398EC7"/>
<stop offset="0.6" stop-color="#006EB8"/>
<stop offset="1" stop-color="#006EB8"/>
</linearGradient>
<linearGradient id="paint1_linear_12984_42" x1="36.5912" y1="27.0124" x2="49.4158" y2="14.1878" gradientUnits="userSpaceOnUse">
<stop stop-color="white"/>
<stop offset="0.04" stop-color="#F6F9FC"/>
<stop offset="0.11" stop-color="#DDECF5"/>
<stop offset="0.2" stop-color="#B5D5EA"/>
<stop offset="0.3" stop-color="#7EB5DB"/>
<stop offset="0.41" stop-color="#398EC7"/>
<stop offset="0.5" stop-color="#006EB8"/>
<stop offset="1" stop-color="#006EB8"/>
</linearGradient>
</defs>
</svg>
