<?xml version="1.0" encoding="UTF-8"?>
<svg version="1.1" xmlns="http://www.w3.org/2000/svg" width="300" height="168">
<path d="M0 0 C99 0 198 0 300 0 C300 55.44 300 110.88 300 168 C201 168 102 168 0 168 C0 112.56 0 57.12 0 0 Z " fill="#FEFEFE" transform="translate(0,0)"/>
<path d="M0 0 C5.41236375 2.36137878 8.67456949 6.37148475 11.6484375 11.3828125 C13.54184245 17.06302734 13.56975657 23.12382919 11.0859375 28.6328125 C7.98115547 34.03338406 3.92263798 37.4893766 -1.8515625 39.7578125 C-9.15812567 41.06255592 -14.23443666 40.6263359 -20.3515625 36.3828125 C-24.83052915 32.2103535 -27.84562665 27.94566603 -28.72265625 21.76953125 C-28.89035645 14.95301142 -27.85418567 10.58666387 -23.3515625 5.3828125 C-16.49141347 -0.9753744 -9.12482351 -2.39488723 0 0 Z " fill="#2CC84E" transform="translate(240.3515625,74.6171875)"/>
<path d="M0 0 C18 0 18 0 24 3 C28.98550569 8.52447928 28.98550569 8.52447928 29.01953125 11.98828125 C28.44353822 18.45461813 26.59496833 21.40503167 22 26 C22.5775 26.92683594 23.155 27.85367188 23.75 28.80859375 C24.50011664 30.01815684 25.25011031 31.22779619 26 32.4375 C26.3815625 33.04916016 26.763125 33.66082031 27.15625 34.29101562 C30 38.88671875 30 38.88671875 30 40 C26.749888 40.7959458 24.21368755 41.02715963 21 40 C17.8895563 36.24718205 14 31.05025381 14 26 C12.02 26 10.04 26 8 26 C8 30.62 8 35.24 8 40 C5.36 40 2.72 40 0 40 C0 26.8 0 13.6 0 0 Z " fill="#332B24" transform="translate(178,74)"/>
<path d="M0 0 C8 0 8 0 10.20703125 2.01171875 C10.73683594 2.89472656 11.26664063 3.77773437 11.8125 4.6875 C12.35519531 5.55761719 12.89789063 6.42773438 13.45703125 7.32421875 C13.96621094 8.20722656 14.47539063 9.09023437 15 10 C15.56074219 10.89332031 16.12148437 11.78664063 16.69921875 12.70703125 C18 15 18 15 18 17 C18.66 17 19.32 17 20 17 C20.38285156 15.95779297 20.38285156 15.95779297 20.7734375 14.89453125 C22.15522692 11.63368425 23.77386492 8.70757895 25.625 5.6875 C26.25664063 4.61886719 26.88828125 3.55023438 27.5390625 2.44921875 C30 0 30 0 38 0 C38 12.87 38 25.74 38 39 C35.69 39 33.38 39 31 39 C30.505 27.12 30.505 27.12 30 15 C26.79114418 20.26081833 26.79114418 20.26081833 23.59814453 25.53125 C23.19708496 26.1809375 22.79602539 26.830625 22.3828125 27.5 C21.97434082 28.1703125 21.56586914 28.840625 21.14501953 29.53125 C20.76716309 30.0159375 20.38930664 30.500625 20 31 C19.34 31 18.68 31 18 31 C16.85498047 29.53125 16.85498047 29.53125 15.6171875 27.5 C15.21612793 26.8503125 14.81506836 26.200625 14.40185547 25.53125 C13.89799316 24.6959375 13.39413086 23.860625 12.875 23 C11.26625 20.36 9.6575 17.72 8 15 C7.67 22.92 7.34 30.84 7 39 C4.69 39 2.38 39 0 39 C0 26.13 0 13.26 0 0 Z " fill="#302820" transform="translate(100,75)"/>
<path d="M0 0 C3.3 0 6.6 0 10 0 C11.99582917 5.53516529 13.98960434 11.07106431 15.98144531 16.60766602 C16.6599113 18.49263707 17.33894686 20.37740321 18.01855469 22.26196289 C18.99302145 24.96447456 19.96546455 27.66770679 20.9375 30.37109375 C21.24373291 31.21900986 21.54996582 32.06692596 21.86547852 32.9405365 C24 38.88612829 24 38.88612829 24 40 C21.03 40 18.06 40 15 40 C14.34 38.02 13.68 36.04 13 34 C7.72 34 2.44 34 -3 34 C-3.66 35.98 -4.32 37.96 -5 40 C-7.64 40 -10.28 40 -13 40 C-12.35182549 35.0899941 -10.95180654 30.61451938 -9.27734375 25.9765625 C-9.01240616 25.23038666 -8.74746857 24.48421082 -8.47450256 23.71542358 C-7.63351712 21.35024984 -6.7856266 18.98762118 -5.9375 16.625 C-5.36347321 15.01448647 -4.7899007 13.40381095 -4.21679688 11.79296875 C-2.81644766 7.86008518 -1.40990353 3.92946802 0 0 Z " fill="#332A23" transform="translate(72,74)"/>
<path d="M0 0 C3.34125 -0.103125 6.6825 -0.20625 10.125 -0.3125 C11.68758545 -0.38078003 11.68758545 -0.38078003 13.28173828 -0.45043945 C17.69097154 -0.51616663 21.00344272 -0.54879705 24.5546875 2.26953125 C27.24579402 5.2744569 28.86560524 7.10468926 29.15234375 11.1484375 C28.58582937 17.01958653 27.2910613 19.90852295 23 24 C18.11785311 27.16534798 12.60778589 26.12190839 7 26 C7 30.29 7 34.58 7 39 C4.69 39 2.38 39 0 39 C0 26.13 0 13.26 0 0 Z " fill="#2F261F" transform="translate(145,75)"/>
<path d="M0 0 C13.53 0 27.06 0 41 0 C41 9.57 41 19.14 41 29 C38.36 29 35.72 29 33 29 C33 22.4 33 15.8 33 9 C22.11 9 11.22 9 0 9 C0 6.03 0 3.06 0 0 Z " fill="#2EC84E" transform="translate(232,53)"/>
<path d="M0 0 C2.31 0 4.62 0 7 0 C7 10.23 7 20.46 7 31 C13.93 31 20.86 31 28 31 C28 33.64 28 36.28 28 39 C18.76 39 9.52 39 0 39 C0 26.13 0 13.26 0 0 Z " fill="#312820" transform="translate(27,75)"/>
<path d="M0 0 C3.07469523 1.70251719 5.40613254 3.81226508 7 7 C7.34717992 12.29449372 7.52421718 15.74663444 4 20 C1.09799637 22.33772514 -0.72300894 22.96474659 -4.4375 23.4375 C-8.66003788 22.91894272 -10.7240245 21.66649168 -14 19 C-16.68121076 14.97818385 -16.81344335 11.72763609 -16 7 C-12.26262691 0.28940074 -7.25088901 -1.11926475 0 0 Z " fill="#FBFDFB" transform="translate(237,83)"/>
<path d="M0 0 C10.14938489 -0.48330404 10.14938489 -0.48330404 13.75 1.5625 C15.54963144 5.07178131 15.03774589 7.26411481 14 11 C9.43362969 14.04424687 5.43284541 13.12783166 0 13 C0 8.71 0 4.42 0 0 Z " fill="#F7F7F7" transform="translate(152,81)"/>
<path d="M0 0 C10.17966102 -0.48474576 10.17966102 -0.48474576 13.75 1.625 C15.44231677 4.84040186 15.04260838 6.57428675 14 10 C12 12 12 12 9.1796875 12.1953125 C6.11979167 12.13020833 3.05989583 12.06510417 0 12 C0 8.04 0 4.08 0 0 Z " fill="#F1F1F0" transform="translate(185,81)"/>
<path d="M0 0 C0.66 0 1.32 0 2 0 C2.83719383 2.29032311 3.6698929 4.58210957 4.5 6.875 C4.73847656 7.52597656 4.97695312 8.17695312 5.22265625 8.84765625 C7 13.7734375 7 13.7734375 7 16 C3.37 16 -0.26 16 -4 16 C-2.83672541 10.59908226 -1.57704144 5.29435341 0 0 Z " fill="#EBEAEA" transform="translate(76,84)"/>
<path d="M0 0 C2.64 0 5.28 0 8 0 C8 12.87 8 25.74 8 39 C5.69 39 3.38 39 1 39 C1 30.75 1 22.5 1 14 C1.33 14 1.66 14 2 14 C2 21.92 2 29.84 2 38 C3.65 38 5.3 38 7 38 C7 25.79 7 13.58 7 1 C5.02 1.66 3.04 2.32 1 3 C0.01 3 -0.98 3 -2 3 C-1.34 2.01 -0.68 1.02 0 0 Z " fill="#20140C" transform="translate(130,75)"/>
</svg>
