<?xml version="1.0" encoding="UTF-8"?>
<svg id="Layer_1" xmlns="http://www.w3.org/2000/svg" xmlns:xlink="http://www.w3.org/1999/xlink" viewBox="0 0 685.24 216">
  <defs>
    <style>
      .cls-1, .cls-2 {
        fill: none;
      }

      .cls-2 {
        stroke: #d11349;
        stroke-width: 2.04px;
      }

      .cls-3 {
        fill: #d11349;
      }

      .cls-4 {
        clip-path: url(#clippath-1);
      }

      .cls-5 {
        fill: #fff;
      }

      .cls-6 {
        fill: #15397f;
      }

      .cls-7 {
        clip-path: url(#clippath);
      }
    </style>
    <clipPath id="clippath">
      <rect class="cls-1" x="-45.77" y="-50.28" width="731.01" height="320.36"/>
    </clipPath>
    <clipPath id="clippath-1">
      <rect class="cls-1" x="-45.77" y="-50.28" width="731.01" height="320.36"/>
    </clipPath>
  </defs>
  <g id="sig_-_horz_usa__x28_cmyk_x29_">
    <g class="cls-7">
      <g class="cls-4">
        <path class="cls-6" d="M265.38,120.54h.9c2.45,0,3.31-1.25,3.45-7.36.15-6.96.5-13.97.5-21.18,0-3.35-1-4.11-3.66-4.11h-.9v-1.5c1.55.05,2.75.15,4.3.15s3.41-.1,4.01-.15l13.77,29.39,12.17-29.39c1.6.05,3.16.15,4.61.15s3.05-.1,4.61-.15v1.5h-.65c-2.31,0-3.86.55-3.86,4.11,0,2.55.2,15.12.3,22.68.05,5.01.6,5.86,3.5,5.86h1v1.5c-1.65-.05-3.76-.15-6.41-.15s-4.81.1-6.51.15v-1.5h.75c2.8,0,3.35-.9,3.35-5.31v-25.24h-.1l-13.42,32.5h-1.1l-13.77-29.59h-.1v20.53c0,5.46.45,7.11,3.2,7.11h.7v1.5c-1.25-.05-3.05-.15-5.31-.15s-3.85.1-5.36.15v-1.5Z"/>
        <path class="cls-6" d="M315.46,120.54h.9c2.3,0,3.31-.85,3.31-4.1v-24.44c0-3.25-1-4.11-3.31-4.11h-.9v-1.5c1.75.05,4.16.15,6.41.15s4.31-.1,6.41-.15v1.5h-.9c-2.31,0-3.31.85-3.31,4.11v24.44c0,3.25,1,4.1,3.31,4.1h.9v1.5c-2.1-.05-4.2-.15-6.41-.15s-4.65.1-6.41.15v-1.5Z"/>
        <path class="cls-6" d="M334.99,120.54h.9c2.3,0,3.3-.85,3.3-4.1v-24.44c0-3.25-1-4.11-3.3-4.11h-.9v-1.5c1.75.05,4.15.15,6.41.15s4.31-.1,6.66-.15v1.5h-1.15c-2.3,0-3.3.85-3.3,4.11v23.28c0,3.76.8,5.06,6.96,5.06,8.21,0,9.17-1.45,10.07-7.16h1.55l-.3,8.86c-4.41-.05-10.06-.15-14.47-.15-5.86,0-10.67.1-12.42.15v-1.5Z"/>
        <path class="cls-6" d="M369.04,120.54h.9c2.3,0,3.3-.85,3.3-4.1v-24.44c0-3.25-1-4.11-3.3-4.11h-.9v-1.5c1.75.05,4.15.15,6.41.15s4.31-.1,6.66-.15v1.5h-1.15c-2.3,0-3.3.85-3.3,4.11v23.28c0,3.76.8,5.06,6.96,5.06,8.21,0,9.16-1.45,10.06-7.16h1.55l-.3,8.86c-4.41-.05-10.07-.15-14.47-.15-5.86,0-10.66.1-12.42.15v-1.5Z"/>
        <path class="cls-6" d="M402.69,120.54h.9c2.3,0,3.31-.85,3.31-4.1v-24.44c0-3.25-1-4.11-3.31-4.11h-.9v-1.5c1.6.05,7.31.15,12.32.15,5.91,0,8.26-.1,11.77-.15.1,3.1.2,5.81.45,8.51h-1.4c-.5-3.5-.85-6.61-9.72-6.61h-4.81v14.17h4.35c6.11,0,6.31-1.05,6.41-4.01h1.41c-.05,1.15-.1,2.7-.1,4.91,0,1.95.05,3.56.1,4.56h-1.41c-.25-2.5-.3-3.56-5.96-3.56h-4.81v12.02c0,3.01,1.1,3.75,4.3,3.75h1.35c8.41,0,10.62-1.6,11.42-7.16h1.4c-.35,3.1-.65,6.01-1,9.06-3.01-.05-8.36-.15-13.77-.15-6.21,0-10.72.1-12.32.15v-1.5Z"/>
        <path class="cls-6" d="M436.69,120.54h.8c2.65,0,3.11-1.1,3.26-6.36.2-6.61.3-16.13.3-21.93,0-3.61-1.1-4.36-3.6-4.36h-1.4v-1.5c1.35.05,2.85.15,4.41.15,1.4,0,2.71-.1,3.96-.15l23.59,28.99h.1l-.3-20.53c-.1-5.76-.85-6.96-3.56-6.96h-.6v-1.5c1.55.05,3.56.15,5.41.15s3.61-.1,5.41-.15v1.5h-.8c-1.55,0-3.01.55-3.15,5.41l-.9,29.19h-1.5l-24.84-30.44h-.1c0,7.76.1,15.47.3,23.23.1,4.11.9,5.26,3.26,5.26h1v1.5c-1.65-.05-3.66-.15-5.51-.15s-3.95.1-5.51.15v-1.5Z"/>
        <path class="cls-6" d="M480,120.54h.8c2.65,0,3.1-1.1,3.25-6.36.2-6.61.3-16.13.3-21.93,0-3.61-1.1-4.36-3.6-4.36h-1.4v-1.5c1.35.05,2.86.15,4.41.15,1.4,0,2.71-.1,3.96-.15l23.59,28.99h.1l-.3-20.53c-.1-5.76-.85-6.96-3.56-6.96h-.6v-1.5c1.55.05,3.56.15,5.41.15s3.61-.1,5.41-.15v1.5h-.8c-1.55,0-3.01.55-3.16,5.41l-.9,29.19h-1.5l-24.84-30.44h-.1c0,7.76.1,15.47.3,23.23.1,4.11.9,5.26,3.25,5.26h1v1.5c-1.65-.05-3.65-.15-5.51-.15s-3.96.1-5.51.15v-1.5Z"/>
        <path class="cls-6" d="M523.37,120.54h.9c2.3,0,3.31-.85,3.31-4.1v-24.44c0-3.25-1-4.11-3.31-4.11h-.9v-1.5c1.75.05,4.15.15,6.41.15s4.3-.1,6.41-.15v1.5h-.9c-2.3,0-3.31.85-3.31,4.11v24.44c0,3.25,1,4.1,3.31,4.1h.9v1.5c-2.1-.05-4.21-.15-6.41-.15s-4.66.1-6.41.15v-1.5Z"/>
        <path class="cls-6" d="M554.41,87.89h-.95c-1.9.1-3.05.75-3.1,4.96-.05,5.26-.2,10.57-.2,15.82,0,4.26.7,6.21,2.05,8.11,1.55,2.25,4.21,4,8.31,4,4.46,0,8.21-2.65,9.36-4.31,1.6-2.26,2.4-5.36,2.4-8.91v-5.31c0-6.71-.6-12.07-1-13.02-.55-1.15-1.1-1.35-2.35-1.35h-1.05v-1.5c1.4.05,3.4.15,5.26.15s3.55-.1,5.36-.15v1.5h-.75c-1.81,0-3.06.7-3.06,5.46v12.82c0,5.36-1.25,9.47-3.91,12.42-2.1,2.3-6.41,4.1-10.56,4.1-3.66,0-6.56-.95-9.71-3.31-3.4-2.5-4.76-6.66-4.76-11.87v-15.77c0-3.21-1.35-3.86-3.21-3.86h-.9v-1.5c2.05.05,4.2.15,6.41.15s4.25-.1,6.36-.15v1.5Z"/>
        <path class="cls-6" d="M583.65,120.54h.9c2.45,0,3.3-1.25,3.45-7.36.15-6.96.5-13.97.5-21.18,0-3.35-1-4.11-3.65-4.11h-.9v-1.5c1.55.05,2.75.15,4.3.15s3.41-.1,4.01-.15l13.77,29.39,12.17-29.39c1.6.05,3.15.15,4.61.15s3.05-.1,4.61-.15v1.5h-.65c-2.3,0-3.85.55-3.85,4.11,0,2.55.2,15.12.3,22.68.05,5.01.6,5.86,3.5,5.86h1v1.5c-1.65-.05-3.75-.15-6.41-.15s-4.81.1-6.51.15v-1.5h.75c2.81,0,3.35-.9,3.35-5.31v-25.24h-.1l-13.42,32.5h-1.1l-13.77-29.59h-.1v20.53c0,5.46.45,7.11,3.21,7.11h.7v1.5c-1.25-.05-3.06-.15-5.31-.15s-3.85.1-5.36.15v-1.5Z"/>
        <path class="cls-6" d="M281.41,147.08h-.4c-.65-1.31-1.84-3.77-6.55-3.77-5.06,0-6.67,4.7-6.67,8.39,0,5.96,4.21,8.02,6.8,8.02,3.91,0,5.7-2.24,6.87-3.72h.17v1.91c-.87.83-2.99,2.87-6.85,2.87-5.65,0-9.48-3.6-9.48-8.63s3.36-9.9,9.26-9.9c2.46,0,4.83.78,5.7,1.06.47.15.95.33,1.24.35l-.1,3.42Z"/>
        <path class="cls-6" d="M283.63,159.7h.45c1.15,0,1.64-.43,1.64-2.06v-12.24c0-1.64-.5-2.06-1.64-2.06h-.45v-.75c.87.03,2.07.08,3.19.08s2.14-.05,3.24-.08v.75h-.72c-1,0-1.42.28-1.42,2.67v4.65h10.28v-4.65c0-2.39-.43-2.67-1.42-2.67h-.72v-.75c1.09.03,2.14.08,3.24.08s2.32-.05,3.19-.08v.75h-.45c-1.15,0-1.64.43-1.64,2.06v12.24c0,1.63.5,2.06,1.64,2.06h.45v.75c-.87-.02-2.07-.08-3.19-.08s-2.14.05-3.24.08v-.75h.72c1,0,1.42-.28,1.42-2.66v-5.34h-10.28v5.34c0,2.39.42,2.66,1.42,2.66h.72v.75c-1.09-.02-2.14-.08-3.24-.08s-2.32.05-3.19.08v-.75Z"/>
        <path class="cls-6" d="M303.58,159.7h.3c1.37,0,1.91-.63,2.69-2.71l5.7-15.11h.47l6.4,15.38c.6,1.46,1.37,2.44,2.52,2.44h.52v.75c-.95-.05-2.09-.08-3.39-.08s-2.51.03-3.44.08v-.75h.62c.8,0,1.27-.28,1.27-.8,0-.35-.25-1.03-.35-1.26l-1.82-4.52h-5.8l-1.32,3.96c-.17.5-.42,1.26-.42,1.81,0,.45.25.8,1.02.8h.55v.75c-.87-.05-1.89-.08-3.06-.08-.95,0-1.87.03-2.46.08v-.75ZM311.91,145.3l-2.32,6.88h5.1l-2.79-6.88Z"/>
        <path class="cls-6" d="M323.47,159.7h.45c1.14,0,1.65-.43,1.65-2.06v-12.24c0-1.64-.5-2.06-1.65-2.06h-.45v-.75c.87.03,2.07.08,3.19.08s2.14-.05,3.31-.08v.75h-.57c-1.15,0-1.64.43-1.64,2.06v11.67c0,1.88.4,2.54,3.46,2.54,4.09,0,4.56-.73,5-3.59h.78l-.15,4.45c-2.19-.02-5-.08-7.2-.08-2.91,0-5.31.05-6.18.08v-.75Z"/>
        <path class="cls-6" d="M339.15,159.7h.45c1.15,0,1.65-.43,1.65-2.06v-12.24c0-1.64-.5-2.06-1.65-2.06h-.45v-.75c.87.03,2.07.08,3.19.08s2.14-.05,3.31-.08v.75h-.57c-1.15,0-1.64.43-1.64,2.06v11.67c0,1.88.4,2.54,3.46,2.54,4.08,0,4.56-.73,5-3.59h.77l-.15,4.45c-2.19-.02-5-.08-7.2-.08-2.91,0-5.3.05-6.18.08v-.75Z"/>
        <path class="cls-6" d="M354.65,159.7h.45c1.14,0,1.64-.43,1.64-2.06v-12.24c0-1.64-.5-2.06-1.64-2.06h-.45v-.75c.79.03,3.63.08,6.13.08,2.93,0,4.11-.05,5.85-.08.05,1.56.1,2.92.22,4.27h-.7c-.25-1.76-.42-3.32-4.83-3.32h-2.39v7.11h2.17c3.04,0,3.14-.53,3.19-2.01h.7c-.03.58-.05,1.36-.05,2.46,0,.97.03,1.77.05,2.27h-.7c-.13-1.25-.15-1.77-2.97-1.77h-2.39v6.01c0,1.51.55,1.88,2.14,1.88h.67c4.18,0,5.28-.8,5.68-3.6h.69c-.17,1.56-.32,3.02-.49,4.55-1.5-.02-4.16-.08-6.85-.08-3.09,0-5.33.05-6.13.08v-.75Z"/>
        <path class="cls-6" d="M370.31,159.7h.4c1.32,0,1.54-.55,1.62-3.19.1-3.31.15-8.07.15-10.99,0-1.81-.55-2.19-1.79-2.19h-.7v-.75c.67.03,1.42.08,2.19.08.7,0,1.35-.05,1.97-.08l11.73,14.53h.05l-.15-10.28c-.05-2.89-.42-3.5-1.77-3.5h-.3v-.75c.77.03,1.77.08,2.69.08s1.79-.05,2.69-.08v.75h-.4c-.77,0-1.49.28-1.57,2.72l-.45,14.63h-.75l-12.35-15.26h-.05c0,3.9.05,7.75.15,11.64.05,2.06.45,2.64,1.62,2.64h.5v.75c-.82-.02-1.82-.08-2.74-.08s-1.96.05-2.74.08v-.75Z"/>
        <path class="cls-6" d="M408,147.01h-.7c-.4-2.69-3.48-3.7-6.15-3.7-4.21,0-7.47,2.82-7.47,7.84,0,4.45,3.31,8.67,7.92,8.67,1.89,0,2.64-.3,4.26-1.03v-4.2c0-.75-.17-1.32-1.44-1.32h-.35v-.75c.82.03,1.87.08,2.86.08s1.92-.05,2.87-.08v.75h-.55c-.6,0-1.19.22-1.19,1.25v5.03c-1.97.6-4.29,1.23-6.9,1.23-7.49,0-9.96-5.4-9.96-9.05,0-5.4,3.98-9.47,10.21-9.47,2.46,0,4.96.78,6.6,1.34v3.42Z"/>
        <path class="cls-6" d="M411.36,159.7h.45c1.14,0,1.64-.43,1.64-2.06v-12.24c0-1.64-.5-2.06-1.64-2.06h-.45v-.75c.8.03,3.64.08,6.13.08,2.94,0,4.11-.05,5.85-.08.05,1.56.1,2.92.22,4.27h-.7c-.25-1.76-.43-3.32-4.83-3.32h-2.39v7.11h2.17c3.03,0,3.13-.53,3.19-2.01h.7c-.02.58-.05,1.36-.05,2.46,0,.97.03,1.77.05,2.27h-.7c-.12-1.25-.15-1.77-2.96-1.77h-2.39v6.01c0,1.51.55,1.88,2.14,1.88h.67c4.18,0,5.28-.8,5.68-3.6h.7c-.18,1.56-.33,3.02-.5,4.55-1.49-.02-4.16-.08-6.85-.08-3.09,0-5.33.05-6.13.08v-.75Z"/>
        <path class="cls-6" d="M450.66,147.08h-.4c-.65-1.31-1.84-3.77-6.55-3.77-5.05,0-6.67,4.7-6.67,8.39,0,5.96,4.21,8.02,6.8,8.02,3.91,0,5.7-2.24,6.87-3.72h.18v1.91c-.87.83-2.99,2.87-6.85,2.87-5.65,0-9.49-3.6-9.49-8.63s3.36-9.9,9.26-9.9c2.46,0,4.83.78,5.7,1.06.48.15.95.33,1.24.35l-.1,3.42Z"/>
        <path class="cls-6" d="M462.78,142.25c4.96,0,9.29,4.05,9.29,9.28,0,4.4-3.39,9.25-9.36,9.25-5.38,0-9.26-4.1-9.26-9.05,0-5.6,4.43-9.47,9.34-9.47M462.71,143.31c-3.48,0-6.77,2.16-6.77,7.99,0,4.05,2.64,8.52,6.92,8.52,4.6,0,6.72-3.42,6.72-8.02,0-4.04-2.51-8.49-6.87-8.49"/>
        <path class="cls-6" d="M474.54,159.7h.45c1.14,0,1.64-.43,1.64-2.06v-12.24c0-1.64-.5-2.06-1.64-2.06h-.45v-.75c.87.03,2.07.08,3.19.08,1.67,0,2.86-.08,3.96-.08,4.41,0,5.2,3.49,5.2,4.65,0,3.29-2.29,4.29-3.54,4.69l3.34,5.56c1.37,2.26,1.77,2.41,3.78,2.54v.53c-.48,0-.92.03-1.39.03-2.19,0-3.21-.28-4.53-2.46l-2.91-4.79c-.57-.92-.89-.97-2.81-1.02v4.74c0,2.39.42,2.66,1.42,2.66h.72v.75c-1.09-.02-2.14-.08-3.24-.08s-2.31.05-3.19.08v-.75ZM478.82,151.18c.42.15,1.05.18,1.69.18,2.24,0,4.09-1.03,4.09-3.64,0-1.1-.75-4.17-4.21-4.17-.6,0-1.07.05-1.57.1v7.54Z"/>
        <path class="cls-6" d="M491.6,159.7h.45c1.14,0,1.64-.43,1.64-2.06v-12.24c0-1.63-.5-2.06-1.64-2.06h-.45v-.75c.87.03,2.07.08,3.19.08,1.35,0,2.72-.08,4.06-.08,4.01,0,5.25,2.76,5.25,4.75,0,2.24-1.34,4.79-5.92,4.79-.77,0-1.52-.07-2.29-.15v5.06c0,2.39.43,2.66,1.42,2.66h.72v.75c-1.09-.02-2.14-.08-3.24-.08s-2.31.05-3.19.08v-.75ZM495.88,150.58c.92.45,1.75.6,2.57.6,2.46,0,3.26-1.86,3.26-3.37,0-2.94-1.6-4.48-4.26-4.48-.6,0-1.15.05-1.57.1v7.14Z"/>
        <path class="cls-6" d="M515.8,142.25c4.95,0,9.29,4.05,9.29,9.28,0,4.4-3.39,9.25-9.36,9.25-5.38,0-9.26-4.1-9.26-9.05,0-5.6,4.43-9.47,9.34-9.47M515.73,143.31c-3.49,0-6.78,2.16-6.78,7.99,0,4.05,2.64,8.52,6.92,8.52,4.61,0,6.73-3.42,6.73-8.02,0-4.04-2.52-8.49-6.87-8.49"/>
        <path class="cls-6" d="M527.55,159.7h.45c1.14,0,1.65-.43,1.65-2.06v-12.24c0-1.64-.5-2.06-1.65-2.06h-.45v-.75c.87.03,2.06.08,3.18.08,1.67,0,2.87-.08,3.96-.08,4.41,0,5.2,3.49,5.2,4.65,0,3.29-2.29,4.29-3.54,4.69l3.34,5.56c1.37,2.26,1.77,2.41,3.78,2.54v.53c-.47,0-.92.03-1.39.03-2.19,0-3.21-.28-4.53-2.46l-2.91-4.79c-.57-.92-.89-.97-2.82-1.02v4.74c0,2.39.43,2.66,1.42,2.66h.72v.75c-1.1-.02-2.14-.08-3.24-.08s-2.31.05-3.18.08v-.75ZM531.83,151.18c.43.15,1.05.18,1.7.18,2.24,0,4.08-1.03,4.08-3.64,0-1.1-.75-4.17-4.21-4.17-.6,0-1.07.05-1.57.1v7.54Z"/>
        <path class="cls-6" d="M543.81,159.7h.3c1.37,0,1.92-.63,2.69-2.71l5.7-15.11h.47l6.4,15.38c.6,1.46,1.37,2.44,2.52,2.44h.52v.75c-.95-.05-2.09-.08-3.39-.08s-2.51.03-3.44.08v-.75h.62c.79,0,1.27-.28,1.27-.8,0-.35-.25-1.03-.35-1.26l-1.82-4.52h-5.8l-1.32,3.96c-.17.5-.42,1.26-.42,1.81,0,.45.25.8,1.02.8h.55v.75c-.87-.05-1.89-.08-3.06-.08-.95,0-1.87.03-2.47.08v-.75ZM552.15,145.3l-2.32,6.88h5.11l-2.79-6.88Z"/>
        <path class="cls-6" d="M565.13,159.7h.57c1.35,0,1.59-.32,1.59-2.39v-13.68h-2.84c-2.67,0-2.99,1.56-3.14,3.52h-.85v-4.58c.75.03,4.68.08,7.92.08,2.99,0,7.07-.05,7.92-.08v4.58h-.85c-.15-1.96-.47-3.52-3.14-3.52h-2.84v13.68c0,2.06.25,2.39,1.59,2.39h.57v.75c-.95-.02-2.02-.08-3.26-.08s-2.32.05-3.27.08v-.75Z"/>
        <path class="cls-6" d="M577.65,159.7h.45c1.14,0,1.64-.43,1.64-2.06v-12.24c0-1.64-.5-2.06-1.64-2.06h-.45v-.75c.87.03,2.06.08,3.18.08s2.14-.05,3.19-.08v.75h-.45c-1.14,0-1.65.43-1.65,2.06v12.24c0,1.63.5,2.06,1.65,2.06h.45v.75c-1.05-.02-2.1-.08-3.19-.08s-2.31.05-3.18.08v-.75Z"/>
        <path class="cls-6" d="M595.83,142.25c4.96,0,9.29,4.05,9.29,9.28,0,4.4-3.39,9.25-9.36,9.25-5.38,0-9.26-4.1-9.26-9.05,0-5.6,4.43-9.47,9.34-9.47M595.75,143.31c-3.49,0-6.78,2.16-6.78,7.99,0,4.05,2.64,8.52,6.92,8.52,4.61,0,6.72-3.42,6.72-8.02,0-4.04-2.51-8.49-6.87-8.49"/>
        <path class="cls-6" d="M607.56,159.7h.4c1.32,0,1.54-.55,1.62-3.19.1-3.31.15-8.07.15-10.99,0-1.81-.55-2.19-1.8-2.19h-.69v-.75c.67.03,1.42.08,2.18.08.7,0,1.35-.05,1.97-.08l11.73,14.53h.05l-.15-10.28c-.05-2.89-.42-3.5-1.77-3.5h-.3v-.75c.77.03,1.76.08,2.69.08s1.79-.05,2.69-.08v.75h-.4c-.77,0-1.49.28-1.57,2.72l-.45,14.63h-.75l-12.35-15.26h-.05c0,3.9.05,7.75.15,11.64.05,2.06.45,2.64,1.62,2.64h.5v.75c-.82-.02-1.82-.08-2.74-.08s-1.97.05-2.74.08v-.75Z"/>
        <path class="cls-3" d="M264.97,199.97v-8.51h1.65v8.4c0,3.16,1.67,4.94,4.47,4.94s4.41-1.63,4.41-4.83v-8.51h1.65v8.38c0,4.26-2.45,6.49-6.1,6.49s-6.09-2.22-6.09-6.36"/>
        <polygon class="cls-3" points="283.16 191.46 284.7 191.46 293.92 203.19 293.92 191.46 295.53 191.46 295.53 206.1 294.22 206.1 284.77 194.09 284.77 206.1 283.16 206.1 283.16 191.46"/>
        <rect class="cls-3" x="301.9" y="191.46" width="1.65" height="14.64"/>
        <polygon class="cls-3" points="313.8 192.98 308.89 192.98 308.89 191.46 320.39 191.46 320.39 192.98 315.47 192.98 315.47 206.1 313.8 206.1 313.8 192.98"/>
        <polygon class="cls-3" points="325.56 191.46 336.14 191.46 336.14 192.96 327.22 192.96 327.22 197.96 335.21 197.96 335.21 199.47 327.22 199.47 327.22 204.59 336.25 204.59 336.25 206.1 325.56 206.1 325.56 191.46"/>
        <path class="cls-3" d="M341.66,191.46h5.08c4.6,0,7.78,3.16,7.78,7.28v.04c0,4.12-3.18,7.32-7.78,7.32h-5.08v-14.64ZM346.74,204.57c3.7,0,6.07-2.51,6.07-5.75v-.04c0-3.24-2.36-5.79-6.07-5.79h-3.43v11.58h3.43Z"/>
        <path class="cls-3" d="M367.49,203.96l1.02-1.21c1.53,1.38,2.99,2.07,5.02,2.07s3.26-1.05,3.26-2.49v-.04c0-1.36-.73-2.13-3.81-2.78-3.37-.73-4.91-1.82-4.91-4.22v-.04c0-2.3,2.03-4,4.81-4,2.13,0,3.66.61,5.14,1.8l-.96,1.28c-1.36-1.11-2.72-1.59-4.23-1.59-1.9,0-3.11,1.05-3.11,2.36v.04c0,1.38.75,2.15,3.97,2.84,3.26.71,4.77,1.9,4.77,4.14v.04c0,2.51-2.09,4.14-5,4.14-2.32,0-4.23-.78-5.98-2.34"/>
        <polygon class="cls-3" points="387.47 192.98 382.56 192.98 382.56 191.46 394.06 191.46 394.06 192.98 389.15 192.98 389.15 206.1 387.47 206.1 387.47 192.98"/>
        <path class="cls-3" d="M402.77,191.35h1.55l6.67,14.74h-1.77l-1.71-3.87h-7.97l-1.74,3.87h-1.69l6.67-14.74ZM406.85,200.74l-3.32-7.47-3.35,7.47h6.67Z"/>
        <polygon class="cls-3" points="417.94 192.98 413.03 192.98 413.03 191.46 424.53 191.46 424.53 192.98 419.61 192.98 419.61 206.1 417.94 206.1 417.94 192.98"/>
        <polygon class="cls-3" points="429.71 191.46 440.29 191.46 440.29 192.96 431.36 192.96 431.36 197.96 439.35 197.96 439.35 199.47 431.36 199.47 431.36 204.59 440.39 204.59 440.39 206.1 429.71 206.1 429.71 191.46"/>
        <path class="cls-3" d="M444.84,203.96l1.02-1.21c1.53,1.38,2.99,2.07,5.02,2.07s3.26-1.05,3.26-2.49v-.04c0-1.36-.73-2.13-3.8-2.78-3.37-.73-4.91-1.82-4.91-4.22v-.04c0-2.3,2.03-4,4.81-4,2.13,0,3.66.61,5.14,1.8l-.96,1.28c-1.36-1.11-2.72-1.59-4.22-1.59-1.9,0-3.11,1.05-3.11,2.36v.04c0,1.38.75,2.15,3.97,2.84,3.26.71,4.77,1.9,4.77,4.14v.04c0,2.51-2.09,4.14-5,4.14-2.32,0-4.22-.78-5.98-2.34"/>
        <path class="cls-3" d="M468.98,198.82v-.04c0-4.03,3.03-7.57,7.48-7.57s7.44,3.49,7.44,7.53v.04c0,4.04-3.03,7.57-7.49,7.57s-7.44-3.5-7.44-7.53M482.2,198.82v-.04c0-3.33-2.42-6.04-5.77-6.04s-5.73,2.68-5.73,6v.04c0,3.32,2.42,6.04,5.77,6.04s5.73-2.68,5.73-6"/>
        <polygon class="cls-3" points="489.49 191.46 500.01 191.46 500.01 192.98 491.14 192.98 491.14 198.21 499.06 198.21 499.06 199.72 491.14 199.72 491.14 206.1 489.49 206.1 489.49 191.46"/>
        <path class="cls-3" d="M519.06,191.35h1.55l6.67,14.74h-1.78l-1.71-3.87h-7.97l-1.74,3.87h-1.69l6.67-14.74ZM523.14,200.74l-3.33-7.47-3.34,7.47h6.67Z"/>
        <polygon class="cls-3" points="532.25 191.46 533.92 191.46 539.26 199.44 544.59 191.46 546.26 191.46 546.26 206.1 544.61 206.1 544.61 194.24 539.28 202.08 539.19 202.08 533.86 194.26 533.86 206.1 532.25 206.1 532.25 191.46"/>
        <polygon class="cls-3" points="552.48 191.46 563.07 191.46 563.07 192.96 554.14 192.96 554.14 197.96 562.12 197.96 562.12 199.47 554.14 199.47 554.14 204.59 563.17 204.59 563.17 206.1 552.48 206.1 552.48 191.46"/>
        <path class="cls-3" d="M568.58,191.46h6.29c1.8,0,3.24.54,4.16,1.46.71.71,1.13,1.74,1.13,2.89v.04c0,2.43-1.67,3.85-3.97,4.26l4.49,5.98h-2.03l-4.25-5.69h-4.18v5.69h-1.65v-14.64ZM574.73,198.92c2.2,0,3.76-1.13,3.76-3.01v-.04c0-1.8-1.38-2.89-3.74-2.89h-4.52v5.94h4.49Z"/>
        <rect class="cls-3" x="585.93" y="191.46" width="1.65" height="14.64"/>
        <path class="cls-3" d="M593.31,198.82v-.04c0-4.14,3.09-7.57,7.4-7.57,2.65,0,4.24.94,5.71,2.32l-1.13,1.21c-1.23-1.17-2.62-2.01-4.6-2.01-3.24,0-5.67,2.63-5.67,6v.04c0,3.39,2.45,6.04,5.67,6.04,2.01,0,3.33-.77,4.73-2.11l1.09,1.07c-1.53,1.55-3.2,2.57-5.86,2.57-4.23,0-7.34-3.33-7.34-7.53"/>
        <path class="cls-3" d="M616.89,191.35h1.55l6.67,14.74h-1.77l-1.71-3.87h-7.97l-1.74,3.87h-1.69l6.67-14.74ZM620.96,200.74l-3.33-7.47-3.35,7.47h6.67Z"/>
        <line class="cls-2" x1="264.59" y1="175.08" x2="624.84" y2="175.08"/>
        <polygon class="cls-5" points="113.68 168.52 44.6 215.05 67.29 134.84 1.91 84.52 85.43 81.12 113.68 2.47 141.92 81.12 225.45 84.52 160.19 134.84 182.76 215.05 113.68 168.52"/>
        <path class="cls-5" d="M12.71,87.12c53.74,10.99,98.16,46.48,125.56,93.25l24.46,16.65c-29.57-58.55-84.65-102.38-150.02-109.9"/>
        <path class="cls-5" d="M100.27,172.75l9.91-6.75c-22.71-36.19-56.35-64.88-97.64-78.91l.14.05c38.7,17.72,68.59,48.53,87.59,85.61"/>
        <path class="cls-5" d="M71.83,192.11l14.77-10.05c-4.65-13.01-10.58-25.49-17.76-37.17l-5.16,17.7c3.46,9.58,6.18,19.46,8.15,29.52"/>
        <path class="cls-6" d="M12.68,87.11c61.53.72,117.34,33.94,153.3,83.38l-10.79-37,60.02-46.48-75.87-2.33L113.68,13.24l-25.66,71.44-75.89,2.33s.54.1.55.11"/>
        <path class="cls-3" d="M12.13,87.01s.57.11.58.11c65.37,7.52,120.45,51.35,150.02,109.9l13.69,9.33-10.45-35.85C130.02,121.05,73.66,87.72,12.13,87.01"/>
        <path class="cls-3" d="M12.6,87.09c-.19.02-.45-.1.06.02h0s-.07,0-.05,0c41.29,14.03,75.37,42.02,98.08,78.21l3-1.7,24.6,16.74c-27.4-46.77-71.94-82.29-125.68-93.28"/>
        <path class="cls-3" d="M50.93,206.34l21.4-15.07c-1.98-10.06-4.81-20.26-8.27-29.85l-13.14,44.92Z"/>
        <path class="cls-3" d="M12.68,87.14s.01.01.02.02c-.01,0-.02-.02-.03-.02-.02,0,.08-.06.06-.07-.25,0-.3-.07-.59-.06l3.02,2.32,23.72,18.37,33.3,25.78-3.32,11.41c7.17,11.67,12.39,24.87,17.04,37.88l14.39-10.02c-19-37.09-43.34-63.38-87.59-85.61"/>
        <polygon class="cls-5" points="113.72 61.12 116.56 69.65 125.55 69.7 118.31 75.05 121.04 83.61 113.73 78.38 106.42 83.62 109.14 75.05 101.9 69.71 110.89 69.65 113.72 61.12"/>
        <polygon class="cls-5" points="161.12 92.03 163.97 100.56 172.96 100.62 165.72 105.96 168.45 114.53 161.14 109.29 153.82 114.53 156.54 105.96 149.3 100.63 158.3 100.57 161.12 92.03"/>
        <polygon class="cls-5" points="124.17 91.98 127.02 100.52 136 100.57 128.77 105.92 131.49 114.48 124.18 109.25 116.87 114.49 119.59 105.92 112.35 100.59 121.34 100.53 124.17 91.98"/>
      </g>
    </g>
  </g>
</svg>